<svg width="1200" height="675" viewBox="0 0 1200 675" xmlns="http://www.w3.org/2000/svg" role="img" aria-label="Preview do sistema de notas">
  <defs>
    <linearGradient id="bg" x1="0" y1="0" x2="1" y2="1">
      <stop offset="0%" stop-color="#f8fafc" />
      <stop offset="55%" stop-color="#e2e8f0" />
      <stop offset="100%" stop-color="#cbd5f5" />
    </linearGradient>
    <linearGradient id="accent" x1="0" y1="0" x2="1" y2="0">
      <stop offset="0%" stop-color="#0ea5a5" />
      <stop offset="100%" stop-color="#0f766e" />
    </linearGradient>
  </defs>
  <rect width="1200" height="675" fill="url(#bg)" />
  <circle cx="90" cy="90" r="160" fill="#67e8f9" opacity="0.35" />
  <circle cx="1100" cy="600" r="180" fill="#fde68a" opacity="0.4" />

  <rect x="120" y="80" width="960" height="515" rx="26" fill="white" opacity="0.92" stroke="#cbd5f5" />
  <rect x="170" y="140" width="420" height="18" rx="9" fill="url(#accent)" />
  <rect x="170" y="175" width="520" height="14" rx="7" fill="#94a3b8" opacity="0.6" />

  <rect x="170" y="250" width="300" height="260" rx="18" fill="#f8fafc" stroke="#e2e8f0" />
  <rect x="500" y="250" width="300" height="260" rx="18" fill="#f8fafc" stroke="#e2e8f0" />
  <rect x="830" y="250" width="250" height="260" rx="18" fill="#f8fafc" stroke="#e2e8f0" />

  <rect x="190" y="280" width="160" height="12" rx="6" fill="#0f172a" opacity="0.8" />
  <rect x="190" y="310" width="210" height="10" rx="5" fill="#64748b" />
  <rect x="190" y="340" width="180" height="10" rx="5" fill="#64748b" />

  <rect x="520" y="280" width="120" height="12" rx="6" fill="#0f172a" opacity="0.8" />
  <rect x="520" y="320" width="240" height="22" rx="10" fill="#ccfbf1" />
  <rect x="520" y="355" width="240" height="22" rx="10" fill="#ccfbf1" />
  <rect x="520" y="390" width="240" height="22" rx="10" fill="#ccfbf1" />

  <rect x="850" y="280" width="140" height="12" rx="6" fill="#0f172a" opacity="0.8" />
  <rect x="850" y="320" width="200" height="18" rx="9" fill="#e2e8f0" />
  <rect x="850" y="355" width="150" height="18" rx="9" fill="#dcfce7" />
  <rect x="850" y="390" width="210" height="10" rx="5" fill="#94a3b8" opacity="0.7" />

  <text x="170" y="560" font-family="Sora, Arial, sans-serif" font-size="18" fill="#64748b">Preview do layout do sistema de notas</text>
</svg>
